# xmcd
#
# Track frame offsets:
#	150
#	13605
#	23068
#	51283
#	67912
#	96894
#	115959
#	132312
#	157982
#	174179
#	193539
#	216791
#	236488
#	249769
#	266521
#
# Disc length: 3766 seconds
#
# Revision: 1
# Processed by: cddbd v1.5.2PL0 Copyright (c) Steve Scherf et al.
# Submitted via: audiograbber 1.83.01
#
DISCID=bd0eb40f
DTITLE=Boz Scaggs - A FOOL TO CARE
DYEAR=2015
DGENRE=R&B
TTITLE0=Boz Scaggs - Rich Woman
TTITLE1=Boz Scaggs - I'm A Fool To Care
TTITLE2=Boz Scaggs - Hell To Pay
TTITLE3=Boz Scaggs - Small Town Talk
TTITLE4=Boz Scaggs - Last Tango On 16th Street
TTITLE5=Boz Scaggs - There's A Storm A'Comin'
TTITLE6=Boz Scaggs - I'm So Proud
TTITLE7=Boz Scaggs - I Want To See You
TTITLE8=Boz Scaggs - High Blood Pressure
TTITLE9=Boz Scaggs - Full Of Fire
TTITLE10=Boz Scaggs - Love Don't Love Nobody
TTITLE11=Boz Scaggs - Whispering Pines
TTITLE12=Boz Scaggs - Gypsy Woman
TTITLE13=Boz Scaggs - Talk To Me, Talk To Me
TTITLE14=Boz Scaggs - M.P.B.
EXTD=
EXTT0=
EXTT1=
EXTT2=
EXTT3=
EXTT4=
EXTT5=
EXTT6=
EXTT7=
EXTT8=
EXTT9=
EXTT10=
EXTT11=
EXTT12=
EXTT13=
EXTT14=
PLAYORDER=
